<svg id="Layer_1" data-name="Layer 1" xmlns="http://www.w3.org/2000/svg" xmlns:xlink="http://www.w3.org/1999/xlink" viewBox="0 0 520 277"><defs><style>.cls-1{fill:url(#linear-gradient);}.cls-2{fill:#fff;}.cls-3{fill:#a6120d;}.cls-4{fill:#dd1b16;}.cls-5{fill:#f2f2f2;}.cls-6{fill:#b3b3b3;}</style><linearGradient id="linear-gradient" y1="138.5" x2="520" y2="138.5" gradientUnits="userSpaceOnUse"><stop offset="0.52" stop-color="#1545c0"/><stop offset="1" stop-color="#1545c0" stop-opacity="0.95"/></linearGradient></defs><title>L</title><rect class="cls-1" width="520" height="277"/><path class="cls-2" d="M227.41,111.13V149h-4.57a4,4,0,0,1-1.71-.33,4.25,4.25,0,0,1-1.36-1.13L201.91,125c.07.67.11,1.33.14,2s0,1.23,0,1.78V149h-7.75V111.13H199a6.46,6.46,0,0,1,1,.06,2.39,2.39,0,0,1,.7.19,2.51,2.51,0,0,1,.6.4,6.94,6.94,0,0,1,.65.71l18,22.75c-.09-.73-.15-1.44-.18-2.12s-.05-1.33-.05-1.94V111.13Z"/><path class="cls-2" d="M263.34,129.39h13.47v16a19.91,19.91,0,0,1-6.2,3.09,24.39,24.39,0,0,1-6.88,1,23.6,23.6,0,0,1-8.51-1.47,19.78,19.78,0,0,1-6.57-4.05,18,18,0,0,1-4.21-6.14,19.8,19.8,0,0,1-1.48-7.71,21.16,21.16,0,0,1,1.4-7.79,17.71,17.71,0,0,1,4-6.12,18.24,18.24,0,0,1,6.32-4,22.69,22.69,0,0,1,8.28-1.43,24.17,24.17,0,0,1,4.45.39,22,22,0,0,1,3.83,1.06,17.22,17.22,0,0,1,3.21,1.62,17.42,17.42,0,0,1,2.6,2l-2.55,3.88a2.45,2.45,0,0,1-1.54,1.12,2.76,2.76,0,0,1-2-.47c-.7-.42-1.35-.78-2-1.08a12,12,0,0,0-1.88-.74,12.79,12.79,0,0,0-2-.42,21.39,21.39,0,0,0-2.39-.13,10.94,10.94,0,0,0-4.45.87,9.47,9.47,0,0,0-3.36,2.46,11.08,11.08,0,0,0-2.15,3.81,15.4,15.4,0,0,0-.75,5,15.84,15.84,0,0,0,.83,5.36,11.1,11.1,0,0,0,2.35,4,10.29,10.29,0,0,0,3.64,2.46,12.63,12.63,0,0,0,4.69.84,12.17,12.17,0,0,0,2.88-.31,16,16,0,0,0,2.51-.83v-5.75h-3.75a1.84,1.84,0,0,1-1.3-.44,1.49,1.49,0,0,1-.47-1.12Z"/><path class="cls-2" d="M308.92,142.07a8.09,8.09,0,0,0,3.16-.58,6.33,6.33,0,0,0,2.35-1.68,7.16,7.16,0,0,0,1.47-2.66,11.59,11.59,0,0,0,.51-3.58V111.13h8.79v22.44a17.63,17.63,0,0,1-1.13,6.4,14.14,14.14,0,0,1-8.36,8.29,20.35,20.35,0,0,1-13.6,0A14.61,14.61,0,0,1,297,145a14.27,14.27,0,0,1-3.23-5,17.85,17.85,0,0,1-1.11-6.4V111.13h8.78v22.42a11.57,11.57,0,0,0,.51,3.57,7.63,7.63,0,0,0,1.47,2.68,6.32,6.32,0,0,0,2.35,1.69A8.09,8.09,0,0,0,308.92,142.07Z"/><path class="cls-2" d="M365.29,142v7H342.46V111.13h8.79V142Z"/><path class="cls-2" d="M414.14,149h-6.81a2.92,2.92,0,0,1-1.84-.54,3.34,3.34,0,0,1-1.07-1.36l-2.24-6.61h-14.4l-2.24,6.61a3.19,3.19,0,0,1-1,1.31,2.9,2.9,0,0,1-1.84.59h-6.86l14.66-37.89h9Zm-14-14.49-3.51-10.37c-.26-.66-.54-1.43-.83-2.33s-.59-1.86-.88-2.9q-.39,1.59-.84,2.94c-.29.9-.57,1.68-.83,2.34l-3.48,10.32Z"/><path class="cls-2" d="M458.53,149h-8a3.38,3.38,0,0,1-3.17-1.67l-6.29-11a3.13,3.13,0,0,0-1-1,3.07,3.07,0,0,0-1.56-.33h-2.24v14h-8.79V111.13h12.33a25.33,25.33,0,0,1,7,.85,13.23,13.23,0,0,1,4.74,2.35,8.89,8.89,0,0,1,2.66,3.56,11.71,11.71,0,0,1,.83,4.48,12,12,0,0,1-.49,3.48,10.81,10.81,0,0,1-3.84,5.51,12.63,12.63,0,0,1-3.26,1.8,7.79,7.79,0,0,1,1.61,1.1,7.35,7.35,0,0,1,1.35,1.57Zm-18.67-20.08a9.12,9.12,0,0,0,3.05-.45,5.48,5.48,0,0,0,2.07-1.26,4.77,4.77,0,0,0,1.17-1.89,7.28,7.28,0,0,0,.36-2.32,4.87,4.87,0,0,0-1.62-3.9,7.55,7.55,0,0,0-5-1.41h-3.54v11.23Z"/><path class="cls-2" d="M200.37,162.44a5.61,5.61,0,0,0-4.46,1.88,7.6,7.6,0,0,0-1.64,5.15,7.75,7.75,0,0,0,1.58,5.2,5.61,5.61,0,0,0,4.49,1.83,15.28,15.28,0,0,0,4.09-.64v1.75a12.69,12.69,0,0,1-4.39.66A7.43,7.43,0,0,1,194.2,176a9.47,9.47,0,0,1-2.06-6.53,10.29,10.29,0,0,1,1-4.64,7.08,7.08,0,0,1,2.86-3.07,8.64,8.64,0,0,1,4.4-1.08,10.68,10.68,0,0,1,4.71,1l-.84,1.72A9.11,9.11,0,0,0,200.37,162.44Z"/><path class="cls-2" d="M215.13,178.27a5.9,5.9,0,0,1-4.5-1.73,6.75,6.75,0,0,1-1.64-4.82,7.44,7.44,0,0,1,1.53-4.93,5.08,5.08,0,0,1,4.1-1.83,4.83,4.83,0,0,1,3.82,1.59,6.07,6.07,0,0,1,1.41,4.19V172H211a5,5,0,0,0,1.15,3.43,4,4,0,0,0,3,1.17,10.3,10.3,0,0,0,4.1-.86v1.73a10.28,10.28,0,0,1-2,.64A10.86,10.86,0,0,1,215.13,178.27Zm-.53-11.68a3.2,3.2,0,0,0-2.47,1,4.66,4.66,0,0,0-1.08,2.79h6.72a4.25,4.25,0,0,0-.83-2.82A2.87,2.87,0,0,0,214.6,166.59Z"/><path class="cls-2" d="M230.85,165a8,8,0,0,1,1.54.14l-.27,1.81a6.47,6.47,0,0,0-1.41-.18A3.42,3.42,0,0,0,228,168a4.63,4.63,0,0,0-1.1,3.15V178H225V165.2h1.61l.22,2.37h.09a5.63,5.63,0,0,1,1.73-1.93A3.89,3.89,0,0,1,230.85,165Z"/><path class="cls-2" d="M240.76,176.67a6.53,6.53,0,0,0,1-.08,5.43,5.43,0,0,0,.76-.16v1.49a3.36,3.36,0,0,1-.93.25,6.61,6.61,0,0,1-1.11.1q-3.73,0-3.73-3.92v-7.64h-1.84v-.94l1.84-.81.82-2.74h1.13v3h3.72v1.51H238.7v7.56a2.6,2.6,0,0,0,.55,1.78A1.93,1.93,0,0,0,240.76,176.67Z"/><path class="cls-2" d="M246.74,161.71a1.26,1.26,0,0,1,.33-1,1.23,1.23,0,0,1,1.63,0,1.57,1.57,0,0,1,0,1.95,1.17,1.17,0,0,1-1.63,0A1.3,1.3,0,0,1,246.74,161.71ZM248.85,178h-1.94V165.2h1.94Z"/><path class="cls-2" d="M260.59,166.71h-3.27V178h-1.94V166.71h-2.3v-.88l2.3-.71v-.71c0-3.16,1.38-4.73,4.13-4.73a8.25,8.25,0,0,1,2.39.41l-.5,1.55a6.48,6.48,0,0,0-1.92-.36,1.88,1.88,0,0,0-1.63.73,4.12,4.12,0,0,0-.53,2.35v.84h3.27Zm2.18-5a1.26,1.26,0,0,1,.33-1,1.13,1.13,0,0,1,.82-.31,1.16,1.16,0,0,1,.81.31,1.57,1.57,0,0,1,0,1.95,1.13,1.13,0,0,1-.81.33,1.11,1.11,0,0,1-.82-.33A1.3,1.3,0,0,1,262.77,161.71ZM264.88,178h-1.94V165.2h1.94Z"/><path class="cls-2" d="M276,178.27a5.5,5.5,0,0,1-4.32-1.71,7.08,7.08,0,0,1-1.52-4.86,7.25,7.25,0,0,1,1.55-5,5.59,5.59,0,0,1,4.42-1.76,8.88,8.88,0,0,1,1.85.2,6.11,6.11,0,0,1,1.46.47l-.6,1.65a10.18,10.18,0,0,0-1.41-.43,6.46,6.46,0,0,0-1.35-.17c-2.6,0-3.91,1.67-3.91,5a5.94,5.94,0,0,0,1,3.63,3.32,3.32,0,0,0,2.83,1.26,8.67,8.67,0,0,0,3.29-.69v1.73A7.09,7.09,0,0,1,276,178.27Z"/><path class="cls-2" d="M292,178l-.39-1.83h-.09a5.4,5.4,0,0,1-1.92,1.64,5.93,5.93,0,0,1-2.38.42,4.27,4.27,0,0,1-3-1,3.6,3.6,0,0,1-1.08-2.8c0-2.6,2.07-4,6.22-4.08l2.18-.07v-.8a3.28,3.28,0,0,0-.65-2.23,2.68,2.68,0,0,0-2.08-.72,8.54,8.54,0,0,0-3.63,1l-.6-1.48a8.65,8.65,0,0,1,2.08-.81,8.79,8.79,0,0,1,2.27-.3,4.88,4.88,0,0,1,3.4,1,4.25,4.25,0,0,1,1.11,3.27V178Zm-4.4-1.37a3.94,3.94,0,0,0,2.86-1,3.68,3.68,0,0,0,1-2.79v-1.16l-1.94.08a7.1,7.1,0,0,0-3.35.73,2.16,2.16,0,0,0-1,2,2,2,0,0,0,.64,1.61A2.67,2.67,0,0,0,287.58,176.67Z"/><path class="cls-2" d="M303.4,176.67a6.53,6.53,0,0,0,1-.08,5.43,5.43,0,0,0,.76-.16v1.49a3.36,3.36,0,0,1-.93.25,6.61,6.61,0,0,1-1.11.1q-3.74,0-3.73-3.92v-7.64h-1.84v-.94l1.84-.81.82-2.74h1.13v3h3.72v1.51h-3.72v7.56a2.6,2.6,0,0,0,.55,1.78A1.92,1.92,0,0,0,303.4,176.67Z"/><path class="cls-2" d="M309.38,161.71a1.26,1.26,0,0,1,.33-1,1.13,1.13,0,0,1,.82-.31,1.16,1.16,0,0,1,.81.31,1.57,1.57,0,0,1,0,1.95,1.13,1.13,0,0,1-.81.33,1.11,1.11,0,0,1-.82-.33A1.3,1.3,0,0,1,309.38,161.71ZM311.49,178h-1.94V165.2h1.94Z"/><path class="cls-2" d="M328.53,171.61a7.11,7.11,0,0,1-1.58,4.9,5.57,5.57,0,0,1-4.37,1.76,5.78,5.78,0,0,1-3.06-.81,5.33,5.33,0,0,1-2.07-2.32,8.09,8.09,0,0,1-.72-3.53,7.07,7.07,0,0,1,1.57-4.9,5.54,5.54,0,0,1,4.36-1.75,5.45,5.45,0,0,1,4.28,1.79A7.08,7.08,0,0,1,328.53,171.61Zm-9.79,0a6.07,6.07,0,0,0,1,3.75,3.91,3.91,0,0,0,5.79,0,6.05,6.05,0,0,0,1-3.75,6,6,0,0,0-1-3.73,3.49,3.49,0,0,0-2.92-1.27,3.41,3.41,0,0,0-2.88,1.26A6,6,0,0,0,318.74,171.61Z"/><path class="cls-2" d="M342.55,178v-8.31a3.36,3.36,0,0,0-.71-2.34,2.92,2.92,0,0,0-2.24-.78,3.69,3.69,0,0,0-3,1.09,5.49,5.49,0,0,0-.94,3.6V178h-1.95V165.2h1.58l.32,1.75h.09a4,4,0,0,1,1.68-1.47,5.41,5.41,0,0,1,2.4-.52,4.89,4.89,0,0,1,3.5,1.12,4.77,4.77,0,0,1,1.17,3.58V178Z"/><path class="cls-2" d="M363.94,178h-2V162.68h-5.43v-1.77h12.85v1.77h-5.43Z"/><path class="cls-2" d="M379.34,165a7.82,7.82,0,0,1,1.53.14l-.27,1.81a6.46,6.46,0,0,0-1.4-.18,3.42,3.42,0,0,0-2.67,1.27,4.59,4.59,0,0,0-1.11,3.15V178h-1.94V165.2h1.6l.22,2.37h.1a5.71,5.71,0,0,1,1.72-1.93A3.9,3.9,0,0,1,379.34,165Z"/><path class="cls-2" d="M393,178l-.39-1.83h-.09a5.4,5.4,0,0,1-1.92,1.64,6,6,0,0,1-2.39.42,4.26,4.26,0,0,1-3-1,3.6,3.6,0,0,1-1.08-2.8c0-2.6,2.07-4,6.22-4.08l2.18-.07v-.8a3.28,3.28,0,0,0-.65-2.23,2.68,2.68,0,0,0-2.08-.72,8.54,8.54,0,0,0-3.63,1l-.6-1.48a8.5,8.5,0,0,1,2.08-.81,8.79,8.79,0,0,1,2.27-.3,4.88,4.88,0,0,1,3.4,1,4.25,4.25,0,0,1,1.11,3.27V178Zm-4.4-1.37a4,4,0,0,0,2.86-1,3.68,3.68,0,0,0,1-2.79v-1.16l-1.94.08a7.07,7.07,0,0,0-3.35.73,2.16,2.16,0,0,0-1,2,2,2,0,0,0,.63,1.61A2.72,2.72,0,0,0,388.6,176.67Z"/><path class="cls-2" d="M400.1,161.71a1.26,1.26,0,0,1,.33-1,1.23,1.23,0,0,1,1.63,0,1.57,1.57,0,0,1,0,1.95,1.17,1.17,0,0,1-1.63,0A1.3,1.3,0,0,1,400.1,161.71ZM402.21,178h-1.94V165.2h1.94Z"/><path class="cls-2" d="M417,178v-8.31a3.36,3.36,0,0,0-.71-2.34,2.92,2.92,0,0,0-2.24-.78,3.7,3.7,0,0,0-2.95,1.09,5.49,5.49,0,0,0-.94,3.6V178h-1.95V165.2h1.59l.31,1.75h.1a3.93,3.93,0,0,1,1.67-1.47,5.41,5.41,0,0,1,2.4-.52,4.89,4.89,0,0,1,3.5,1.12,4.77,4.77,0,0,1,1.17,3.58V178Z"/><path class="cls-2" d="M424.55,161.71a1.26,1.26,0,0,1,.33-1,1.13,1.13,0,0,1,.82-.31,1.16,1.16,0,0,1,.81.31,1.57,1.57,0,0,1,0,1.95,1.13,1.13,0,0,1-.81.33,1.11,1.11,0,0,1-.82-.33A1.3,1.3,0,0,1,424.55,161.71ZM426.66,178h-1.94V165.2h1.94Z"/><path class="cls-2" d="M441.4,178v-8.31a3.36,3.36,0,0,0-.71-2.34,2.92,2.92,0,0,0-2.24-.78,3.69,3.69,0,0,0-2.95,1.09,5.49,5.49,0,0,0-.94,3.6V178h-1.95V165.2h1.58l.32,1.75h.09a4,4,0,0,1,1.68-1.47,5.41,5.41,0,0,1,2.4-.52,4.85,4.85,0,0,1,3.49,1.12,4.74,4.74,0,0,1,1.18,3.58V178Z"/><path class="cls-2" d="M459.68,165.2v1.23l-2.38.28a4.24,4.24,0,0,1,.59,1.07,4.12,4.12,0,0,1,.25,1.49,3.81,3.81,0,0,1-1.29,3,5.16,5.16,0,0,1-3.53,1.12,6,6,0,0,1-1.08-.09A1.89,1.89,0,0,0,451,175a.84.84,0,0,0,.43.78,3.14,3.14,0,0,0,1.49.25h2.27a5.09,5.09,0,0,1,3.21.88,3.06,3.06,0,0,1,1.11,2.55,3.66,3.66,0,0,1-1.71,3.26,9.2,9.2,0,0,1-5,1.11,6.85,6.85,0,0,1-3.88-.93,3,3,0,0,1-1.37-2.65,3,3,0,0,1,.75-2,3.79,3.79,0,0,1,2.11-1.16,2.11,2.11,0,0,1-.83-.69,1.85,1.85,0,0,1-.33-1.09,2.06,2.06,0,0,1,.38-1.23,4,4,0,0,1,1.18-1,3.45,3.45,0,0,1-1.62-1.39,4.1,4.1,0,0,1-.63-2.25,4.19,4.19,0,0,1,1.26-3.26,5.19,5.19,0,0,1,3.59-1.14,6.42,6.42,0,0,1,1.82.24Zm-10.24,15a1.74,1.74,0,0,0,.88,1.58,4.8,4.8,0,0,0,2.51.54,7,7,0,0,0,3.63-.74,2.22,2.22,0,0,0,1.18-2,1.59,1.59,0,0,0-.64-1.45,5,5,0,0,0-2.43-.4h-2.33a3.1,3.1,0,0,0-2.07.63A2.27,2.27,0,0,0,449.44,180.2Zm1.05-10.89a2.64,2.64,0,0,0,.76,2,3.06,3.06,0,0,0,2.12.69c1.9,0,2.85-.92,2.85-2.77a2.55,2.55,0,0,0-2.88-2.89,2.81,2.81,0,0,0-2.11.74A3,3,0,0,0,450.49,169.31Z"/><path class="cls-3" d="M177.67,93.4,113.78,71.61V205.39l53.55-29.63L177.67,93.4Z"/><path class="cls-4" d="M51.54,93.79l9.52,82.36,52.72,29.24V71.61L51.54,93.79Z"/><path class="cls-5" d="M131.37,142.83l-17.59,8.22H95.24l-8.71,21.8-16.21.3,43.46-96.68,17.59,66.36Zm-1.7-4.14L113.9,107.47,101,138.15h12.82l15.89.54Z"/><path class="cls-6" d="M113.78,76.47l.12,31,14.68,30.7H113.81l0,12.86,20.41,0,9.54,22.1,15.51.29-45.46-97Z"/></svg>